<svg xmlns="http://www.w3.org/2000/svg" xmlns:xlink="http://www.w3.org/1999/xlink" xmlns:dc="http://purl.org/dc/elements/1.1/" xmlns:rdf="http://www.w3.org/1999/02/22-rdf-syntax-ns#" width="384" height="442" viewBox="0 10 200 200">
  <defs>
    <clipPath id="shield_176515745">
      <path d="m25,25 h150 v50 a150,150,0,0,1,-75,125 a150,150,0,0,1,-75,-125 z"/>
    </clipPath>
    <radialGradient id="backlight" cx="100%" cy="100%" r="150%">
      <stop stop-color="#fff" stop-opacity=".3" offset="0"/>
      <stop stop-color="#fff" stop-opacity=".15" offset=".25"/>
      <stop stop-color="#000" stop-opacity="0" offset="1"/>
    </radialGradient>
    <g id="hand" stroke-width=".6" source="http://wappenwiki.org" license="https://creativecommons.org/licenses/by-nc-sa/3.0">
      <path d="M84.46 131.34c-1.56-1.7-5.82-8.28-5.82-19.2 0-5.36.24-7.48.44-12.96l.06-1.38c.14-2.86.24-4.94.16-6.54-.54-.8.2-6.32.46-7.94-.38-1.18.54-5.42.54-5.42s.68-4.08 2.92-4.1c2.2-.04 2.82 2.54 2.84 3.58l.04 5.6c.02 2.58.04 5.26.12 6.84.2 3.94 1.08 5.86 1.08 5.86l.34-9.7c-.4-1.54.36-8.26.62-10.58-.32-.8.36-5.78.34-6.5 0-.72.4-4.58 3.24-4.62 2.04-.02 2.92 2.4 2.84 3.44.1 3.04.32 11.28.34 14.68.02 3.44.48 11.32 1.26 11.54 0-6.12.54-10.52.54-10.52s-.1-.36-.1-.98c.02-2.46.2-8.84.42-10.74-.26-2.22.24-5.96.2-6.28-.04-.32.36-4.38 2.92-4.38 3.04 0 3.34 3.6 3.34 3.6l.42 11.68.72 9.7s-.54 8.1.5 8.1c.46 0 1.06-7.58 1.26-8.8-.38-1.3.4-9.04.36-9.5-.4-1.18-.2-6.16-.2-6.92 0-.76.3-3.94 3.04-3.94 2.68 0 3.16 3.96 3.16 3.96s1.3 6.84 1.24 12.6c-.04 4.86-.3 8.88-.44 14.02-.1 3.9-.32 9-.44 11.78.34-.2.76-1.06.88-2.2-.26-.66.18-5.94.42-6.82-.66-3.28 2.6-9.14 2.6-9.14s.92-1.72 3.16-1.54c2.24.18 2.24 2.32 2.24 2.32s-.72 3.54-.72 4.9c0 .68.82 7.98.82 7.98l-.96 6.94c-.38 2.62-.64 5.86-1.52 7.22-3.06 5.16-5.98 10.34-9.08 12.18-1.06 2.5.2 6.52.4 8.16 0 1.76-1.32 2.22-2.62 2.22-2.34.02-6.08-.36-10-.36-3.66-.02-7.48.36-10.4.46-1.98 0-4.34-.5-4.34-3 .12-.82.36-4 .36-5.3z"/>
      <g fill="#000" stroke="none">
        <path d="M265.5 273.4c-5.7 2.9-12.5 3.2-18.7 2 0-5.3 5.1-.6 8.2-1.2 3.5.6 7.1-.3 10.5-.8zm-1.9 48.7c-6 2.3-12.9 2.5-19 .6 1-5.9 8 1.3 12.1-.2 2.3.3 4.6-.2 6.9-.4zm-38.1-7.9c-5.3 4.4-13.6 4.4-19.4.8 6.5-.5 12.9-.2 19.4-.8zm-.9-56c-5.3 4.4-13.6 4.4-19.4.8 6.5-.5 12.9-.2 19.4-.8zm-45.2 17.6c-4.7 4.5-12.9 4.7-18.2 1.1 6-.6 12.2-.8 18.2-1.1zm-2.7 49.9c-4.7 4.5-12.9 4.7-18.2 1.1 6-.6 12.2-.8 18.2-1.1zm-42.4-15.5c-4.4 4.2-12.1 4.7-17 1 5.7-.3 11.4-.8 17-1zm2 40.6c-4.5 4.7-12.4 5.1-17.8 1.7 5.9-.7 11.9-.7 17.8-1.7zm95.3 49.9c-14.2 2.9-27.6 8.6-41.2 13.4-15.1 6.3-31.3 11.6-43.9 22.5-.2-.9 8.1-8.8 12.2-10.8 19.9-11.8 42.1-19.8 64.7-24.4 2.7-.4 5.4-1 8.2-.7zm-5.8 57.5c-15 14.9-28 35.3-25.2 57.2.8 7.9 3.9 15.3 7.7 22.2-11.4-13.3-14-32.8-6.9-48.8 5-12.3 14.1-22.4 24.4-30.6z" transform="matrix(.2 0 0 .2 57.5 21.1)"/>
        <path d="M202.4 590.8l-3-.2 2.7-20.1z" transform="matrix(.2 0 0 .2 57.5 21.1)"/>
        <path d="M248.8 548.2c6.7-1.4 13-4.3 18.6-8.2 2.2 2.1 1.2 3.3-1.4 3.9-5.4 2.4-11.3 3.7-17.2 4.3zm-81.4 6.5c-9 2-18.6 3.2-27.7.9-2-.6-4-1.4-5.7-2.7 1.2-2.2 2.4-2.6 4.2-.7 8.9 4.4 19.6 3.6 29.2 2.5zm75.1-103.1c6.3-6.9 15.9-10.7 25.3-10.3 1.9.2-3.2 1.3-4.3 1.9-7 2.6-14.2 5-21 8.3z" transform="matrix(.2 0 0 .2 57.5 21.1)"/>
        <path d="M224.1 367.1c7.3-4 16.4-2.7 24-.2 1.7.5 8 4.2 5 3.4-8.5-1.9-17.2-3.1-25.9-3.4-1 .1-2.1.1-3.1.2zm79.4 24.8c-6.6 1-14 .1-19-4.6 1.6-2.2 2.9-1.9 4.4.2 4.1 3.2 9.5 4.4 14.6 4.4zm-2 35.2c-6.7 1.8-15 .5-19.2-5.6 2.7-2.7 3.6.1 5.5 2 3.8 3.2 8.9 4 13.7 3.6zm-122.9-58.2c6.6-5.1 15.8-5.3 23.7-3.7 2.1.4 5.9 1.9 6.5 2.6-9.5-.8-19.1-1-28.5.7-.6.1-1.1.3-1.7.4zm-45 17.2c4.8-7.1 13.1-11.3 21.1-13.7 3-.8 6.3-1.2 9.4-.3-8.1 1.4-15.2 5.9-22.5 9.5-2.6 1.5-5.4 2.7-7.7 4.6z" transform="matrix(.2 0 0 .2 57.5 21.1)"/>
      </g>
      <path fill="none" d="M113.66 106.84s-.72 1.34-.96 2.78"/>
      <path stroke-width=".4" d="M121.92 94.9c0-1.36.84-5.44.84-5.44s-1.28-.22-1.28 1.26.44 4.86.44 4.18z"/>
    </g>
    <g id="snake" stroke-width=".3" source="http://wappenwiki.org/images/3/36/Colbert.svg" license="https://creativecommons.org/licenses/by-nc-sa/3.0">
      <g fill="#F6F6F6" stroke-width=".25">
        <path d="M87.49 63.6c-.2.32-.32 1.14-.24 1.81.11.92.45 1.86.98 2.28 0-.22-.23-.99-.16-1.62.13-1.14.65-1.61.91-1.8"/>
        <path d="M88.69 63.67c-.14.31-.14 1.06.02 1.65.22.81.64 1.6 1.17 1.91-.03-.2-.33-.86-.35-1.43-.03-1.03.37-1.53.58-1.73"/>
        <path d="M89.58 71.24c-.1-.17-.15-.72-.1-1.09.07-.5.26-.9.56-1.12 0 .12-.14.53-.11.87.06.62.42 1.09.56 1.19"/>
        <path d="M90.8 71.22c-.12-.11-.29-.5-.33-.79-.06-.39-.01-.74.15-.97.03.09.02.43.13.68.19.45.57.72.7.76"/>
      </g>
      <path d="M125.22 73.51a11.17 11.17 0 00-4.11-5.99c-.93-.7-1.91-1.24-2.87-1.67-.97-.43-1.93-.75-2.87-1.01a29.58 29.58 0 00-4.19-.83l-.69-.08-.35-.04-.31-.03s-3.07-.51-5.21-.53c-.94-.84-2.55-.83-4.34-1.78a15.36 15.36 0 00-5.54-1.24c-2.13-.05-5.09 1.19-4.79 1.11-.98.25-1.44.31-2.44.5-.21.04-.43.09-.59.22-.09.07-.16.17-.23.27.07-.1-.07.32-.1.97-.02.4.53.59.84.66.55.13 1.05.4 1.59.56.63.19 2.8.27 3.44.37.44.07 1.12.23 1.9.37.27.45.36 1.14.33 1.66-.05.94-.35 1.42-.74 2.05-.3.48-.75.7-1.18 1.07-.68.33-2.32.91-3.08.92-.28 0-.61-.01-.77.21-.05.13.06.19.1.24.06.07.13.11.21.14.16.07.34.09.52.13.59.15 1.54.05 2.12-.12.18-.05.35-.12.53-.14.67-.07 1.33-.14 2.01-.24.36-.05 1.14-.12 1.96-.2l1.69-.07c.85-.03 1.97.18 2.71-.31.86.75 4.27-.33 8.29.14l.31.04.28.04.56.08c1 .15 1.76.2 2.68.65l1.1.55c.43.21.86.43 1.31.58.52.17 1.11.09 1.11.09s.71 1.2.95 1.55l1.14 1.55s-.41 1-.52 1.36c-.19.67-.19 1.8-.29 1.99-.2.37-1.26.63-1.72.92-.47.29-1.99 1.11-1.99 1.11s-1.45-.05-3.14.19c-1.11.16-2.87.6-2.87.6s-1.4-.32-2.78-.27c-.81.03-2.23.28-3.06.27 0 0-.64-.28-3.05-.3-.83-.01-2.49.22-2.49.22-1.11-.26-2.54-.37-3.68-.26-.73.07-1.84.28-1.84.28s-1.37-.28-2.89-.12-2.55.67-2.55.67-1.6.04-2.13.2c-.52.16-1.04.35-1.56.58-.52.23-1.53 1.11-1.53 1.11s-.72-.1-2.66 1.7c-.9.84-1.05 2.16-1.05 2.16-.01.08-1.08 1.31-1.25 1.9-.79 2.79-.51 4.27-.51 4.27 0 .08.07 1.82.23 2.41a8.3 8.3 0 001.35 2.82s.59 1.41 1.28 2.2a7.1 7.1 0 003.52 2.09c.22.43 1.52 1.19 2.83 1.53.86.22 1.55.21 2.43.3l.71.07c.23.02.46-.04.68 0s1.05.27 1.26.34c.65.2 1.74.22 2.41.23 1.23.03 2.03-.08 2.03-.08.38.13 1.76.48 2.15.5.52.03 1.04.08 1.56.09 1.13.01 2.14-.19 2.14-.19s1.35.48 2.1.54c2.22.19 3.18-.2 3.58-.14.44.06 1.1.24 1.55.28 1.46.15 2.96.23 3.26.05.39.49 1.26.37 1.76.55.76.27 1.07.86 1.75.86 0 .44.52.23.52 1.31 0 .85-.65 1.07-.46 1.45.15.02-.74.14-1.79.81-1.04.67-1.61 1.15-1.61 1.15-.3.06-1.18.01-2.07.15-.89.14-1.78.47-2.08.5-1.14.12-1.24-.04-2.38.11-.78.1-1.41.34-2.19.47 0 0-1.18.01-1.94.18-.88.19-1.44.46-2.25.84 0 0-1.02.23-1.84.58-1.08.46-1.46 1.15-1.69 1.33a7.7 7.7 0 00-1.5 1.57 3.15 3.15 0 00-.61 1.66c0 .54-.25 1.03-.28 1.58-.03.54-.02 1.09.11 1.61.1.4.52 1.1.78 1.41 0 0-.02.51.95 1.48s1.6.95 1.87 1.01c0 0 .86.46 1.49.69.91.33 1.9.33 1.9.33.16.08.64.6 1.14.94.51.35 1.18.57 1.18.57l-.11.75c-.07.46-.01.77-.1.97-.08.18-.45.29-.6.41-.71.57-.76 1.04-.85 1.12-.09.08-.24.12-.34.19a1.9 1.9 0 00-.58.65 3.29 3.29 0 00-.3 1.75l.08.18c0 .3-.03.7.1 1.08.35 1.03.87 1.1 1.2 1.29.18.1.57.47.75.18.11-.18-.07-.48-.14-.64-.37-.78-.29-1.89.36-2.46 1.04-.91 1.51-.86 2.53-1.9.16-.16.29-.36.42-.57a4.68 4.68 0 00.64-1.38l.09-.37.07-.39.02-.21.01-.14.01-.07v-.32a5 5 0 00-.26-1.6 4.85 4.85 0 00-1.06-1.61c-1.31-1.24-3.25-1.75-4.74-2.41-.49-.22-1.8-.65-1.8-2.12 0-.91.36-1.53 1.23-1.9 1.06-.39 2.35-.76 6-1.07 2.83-.25 4.59-.45 5.72-.63a20.07 20.07 0 005.37-1.7c.79-.39 1.6-.86 2.39-1.5a8.11 8.11 0 002.12-2.52 7.1 7.1 0 00.8-2.59l.02-.22.02-.26.01-.17v-.22a8.1 8.1 0 00-.74-3.34 8.05 8.05 0 00-2.06-2.7 9.6 9.6 0 00-3.05-1.75l-.35-.12-.18-.06-.19-.06-.2-.06-.09-.02-.07-.02-.13-.03-.07-.02-.21-.04h-.02l-.03-.01c-4.7-1.1-14.5-1.5-17.96-2-3.46-.5-6.99-.8-9.33-1.74a7.1 7.1 0 01-1.53-.84 3.99 3.99 0 01-.96-.97 3.3 3.3 0 01-.49-1.18 5.48 5.48 0 01-.11-.74l-.01-.2v-.38.02-.06l.01-.21c.03-.56.13-1.07.29-1.5a3.6 3.6 0 011.71-2c.22-.13.45-.25.7-.35a9.65 9.65 0 011.66-.49l.31-.05.08-.01.04-.01h.03l-.04.01.13-.02.25-.04.26-.03a26.3 26.3 0 012.26-.17c1.57-.07 3.2-.07 4.85-.05l9.03.08 2.58.02 1.31-.01.66-.01.69-.02.66-.03.7-.04a26.37 26.37 0 004.25-.59 18.6 18.6 0 005.82-2.22c.96-.59 1.92-1.34 2.75-2.29a9.86 9.86 0 001.96-3.33c.44-1.23.61-2.5.61-3.69.02-1.1-.09-2.26-.41-3.43z"/>
      <path fill="#F6F6F6" d="M92.42 61.88c-.02.19-.02.57.19.8.18.2.44.37.71.38.44.02.81-.16 1.01-.52.17-.3.2-.66.2-1a3.3 3.3 0 00-2.11.34z"/>
      <g fill="#000" stroke="none">
        <path d="M93.17 61.65c-.13.1-.13.21-.14.32-.02.31.19.71.4.85a2.5 2.5 0 01-.08-1.12"/>
        <path d="M88.17 62.59l-.07-.02c-.04-.01-.09-.02-.15-.01s-.12.02-.16.06l-.02.01-.02.01-.03.03-.07.09-.04.05-.03.05-.06.1-.1.19-.07.15-.03.06s-.06-.09-.07-.25a.66.66 0 01.03-.27c.01-.05.03-.1.06-.14l.04-.07.05-.07a.68.68 0 01.19-.17.08.08 0 01.04-.02l.04-.02a.4.4 0 01.31.02c.08.04.13.09.15.13l.01.09z"/>
        <path d="M87.67 63.29v-.04l.01-.07c.01-.05.03-.1.06-.14a.27.27 0 01.13-.07l.07-.01h.04l.02.03.02.08c.01.06-.01.13-.06.18s-.11.08-.17.07l-.08-.01-.04-.02z"/>
        <path d="M91.59 62.28l.11-.1.26-.19.27-.17.13-.08.11.28-.14.03a15.54 15.54 0 00-.61.17l-.13.06z"/>
        <path d="M100.11 65.47l.07.01.21.02a3.2 3.2 0 011.15.39l.17.1.06.04-.07-.03a3.34 3.34 0 00-.75-.22c-.21-.03-.42-.04-.58-.03l-.19.01-.07.01v-.3z"/>
        <path d="M94.33 60.68l.1-.03.12-.03.15-.02.18-.01.2.01.22.03.22.06.21.08.2.1.17.11.14.11.11.11.08.09.06.08-.1-.04-.25-.1c-.2-.08-.46-.18-.72-.26l-.2-.06-.19-.06-.18-.05-.17-.04-.26-.06-.09-.02z"/>
        <path d="M88.77 63.76s.04-.01.09 0 .11.03.16.06c.05.04.09.08.11.13l.03.09h-.1a.52.52 0 01-.16-.06.42.42 0 01-.11-.13l-.02-.09z"/>
        <path d="M89.99 64.23s.03-.03.07-.04c.04-.02.1-.01.14.01.05.02.08.06.1.11.02.04.01.08.01.08l-.08.01c-.04 0-.08 0-.12-.02a.24.24 0 01-.09-.08l-.03-.07z"/>
        <path d="M92.33 64.37l.06-.06c.04-.03.1-.04.15-.03.05.01.11.03.14.07l.05.07-.08.04c-.04.02-.09.02-.14.02a.5.5 0 01-.13-.05l-.05-.06z"/>
        <path d="M93.36 64.62l.08-.05c.05-.02.1-.04.16-.03.06 0 .12.02.16.05l.07.06-.08.05a.29.29 0 01-.16.03.28.28 0 01-.16-.05.73.73 0 01-.07-.06z"/>
        <path d="M94.37 64.7l.07-.06c.04-.03.1-.04.16-.02.06.01.11.05.14.09l.04.08-.08.03a.33.33 0 01-.14 0 .27.27 0 01-.12-.06.73.73 0 01-.07-.06z"/>
        <path d="M95.27 64.91l.05-.05a.15.15 0 01.11-.04c.04 0 .07.02.1.05l.04.06-.05.06a.15.15 0 01-.11.04c-.04 0-.07-.02-.1-.05-.03-.03-.04-.07-.04-.07z"/>
      </g>
      <g fill="none">
        <path d="M109.63 70.68c.54-1 .3-2.11.91-2.87"/>
        <path d="M109.61 70.68c.54-1 .3-2.11.91-2.87"/>
        <path d="M93.99 69.5l-1.23.61"/>
        <path d="M100.77 70.67a6.9 6.9 0 001.54-1.47"/>
        <path d="M102.31 69.19c.57-.71.84-1.66 1.11-2.03"/>
        <path d="M93.99 69.5c1.15-.46 1.96-1.48 2.94-2.23.91-.68 2.13-1.21 3.18-1.65"/>
        <path d="M94.35 65.34c.65.11 1.37.2 2.06.21 1.85.02 3.76.08 3.76.08"/>
        <path d="M103.42 67.17s2.25.19 3.33.13c1.8-.09 5.45.49 5.45.49s9.65 1.7 9.65 8.43-4.78 8.16-11.12 8.9c-6.34.74-21.17-.74-25.91.8s-6.62 5.16-6.62 7.8.66 6.24 5.18 8.22c4.72 2.07 25.24 2.65 28.44 3.45 3.31.83 4.57 2.77 4.57 5.28 0 2.89-2.17 3.92-4.7 4.84-5.22 1.92-13.36 1.56-16.04 3.66-1.9 1.49-2.84 3.69-1.43 5.89 2.19 3.34 6.26 1.54 7.97 5.06a3.58 3.58 0 01-1.47 4.25c-1.71 1.16-2.66 3.1-.7 4.95"/>
        <path d="M118.5 75.95c.11-.19 2.79-1.15 3.16-1.14"/>
        <path d="M116.41 72.84c.14-1.06.76-2 1.36-2.89"/>
        <path d="M111.71 71.21c0-1.15.4-2.29 1.11-3.18"/>
        <path d="M106.91 70.45a5.07 5.07 0 01.67-3.12"/>
        <path d="M117.8 79.28c.24-.04 2.04 1.48 2.37 2.24"/>
        <path d="M113.98 81.34c.32.96.65 1.98.59 2.98"/>
        <path d="M107.98 82.13c.33 1.01.4 2.09.2 3.13"/>
        <path d="M102.14 82.13a7.96 7.96 0 01-.18 3.11"/>
        <path d="M96.59 82.05c.39 1.07.39 2.08.01 3.16"/>
        <path d="M91.07 82.06c.28 1.01.38 2.08.29 3.12"/>
        <path d="M85.64 82.62c.44.87.72 1.83.82 2.8"/>
        <path d="M80.45 84.51a5.83 5.83 0 011.66 2.54"/>
        <path d="M76.7 88.45c.95.36 1.79 1 2.38 1.81"/>
        <path d="M75.03 94.43A9.43 9.43 0 0177 94.1a2.1 2.1 0 011.19.19"/>
        <path d="M76.54 99.77c.56-.64 1.98-1.03 2.82-1.06"/>
        <path d="M82.21 101.5c-.52.7-.83 1.55-.87 2.42"/>
        <path d="M88.38 103.09a8.3 8.3 0 00-.41 2.66"/>
        <path d="M94.2 103.94a7.21 7.21 0 00-.51 2.52"/>
        <path d="M99.92 104.4c-.35.69-.5 1.48-.42 2.25"/>
        <path d="M105.47 104.73a10.7 10.7 0 00-.24 2.53"/>
        <path d="M110.32 105.26a6.78 6.78 0 00-.28 2.33"/>
        <path d="M114.8 107.16c-.52.63-.87 1.11-1.26 1.83"/>
        <path d="M113.73 111.79c.73.3 1.19.73 1.76 1.27"/>
        <path d="M110.21 113.72c.31.09.52.38.68.67.21.37.28.66.42 1.06"/>
        <path d="M106.05 114.37c.25.78.36 1.51.3 2.33"/>
        <path d="M101.49 115.06c.32.72.46 1.51.41 2.3"/>
        <path d="M97.32 115.98c.42.55.68 1.33.72 2.03"/>
        <path d="M93.77 117.98c.57.33 1.05.81 1.4 1.37"/>
        <path d="M91.75 121.56c.66-.06 1.23.03 1.85.25"/>
        <path d="M92.36 125.61a3.72 3.72 0 011.54-1.07"/>
        <path d="M95.11 128.21a3.1 3.1 0 011.12-1.34"/>
        <path d="M98.52 129.15a2 2 0 01.83-1.3"/>
        <path d="M100.86 130.71c.34-.28.9-.41 1.34-.35"/>
        <path d="M100.61 132.49c.44.13.86.35 1.21.65"/>
        <path d="M99.28 134.11c.25.18.56.52.67.81"/>
        <path d="M98 136.77c.36-.09.53-.15.9-.17"/>
      </g>
    </g>
    <pattern id="ermine-argent-sable" width="0.125" height="0.125" viewBox="0 0 200 200" fill="#333333">
      <rect width="200" height="200" fill="#fafafa"/>
      <g stroke="none" fill="#333333">
        <g transform="translate(-100 -50)">
          <path d="m100 81.1c-4.25 17.6-12.7 29.8-21.2 38.9 3.65-0.607 7.9-3.04 11.5-5.47-2.42 4.86-4.86 8.51-7.3 12.7 1.82-0.607 6.07-4.86 12.7-10.9 1.21 8.51 2.42 17.6 4.25 23.6 1.82-5.47 3.04-15.2 4.25-23.6 3.65 3.65 7.3 7.9 12.7 10.9l-7.9-13.3c3.65 1.82 7.9 4.86 11.5 6.07-9.11-9.11-17-21.2-20.6-38.9z"/>
          <path d="m82.4 81.7c-0.607-0.607-6.07 2.42-9.72-4.25 7.9 6.68 15.2-7.3 21.8 1.82 1.82 4.25-6.68 10.9-12.1 2.42z"/>
          <path d="m117 81.7c0.607-1.21 6.07 2.42 9.11-4.86-7.3 7.3-15.2-7.3-21.2 2.42-1.82 4.25 6.68 10.9 12.1 2.42z"/>
          <path d="m101 66.5c-1.02-0.607 3.58-4.25-3.07-8.51 5.63 7.9-10.2 10.9-1.54 17.6 3.58 2.42 12.2-2.42 4.6-9.11z"/>
        </g>
        <g transform="translate(100 -50)">
          <path d="m100 81.1c-4.25 17.6-12.7 29.8-21.2 38.9 3.65-0.607 7.9-3.04 11.5-5.47-2.42 4.86-4.86 8.51-7.3 12.7 1.82-0.607 6.07-4.86 12.7-10.9 1.21 8.51 2.42 17.6 4.25 23.6 1.82-5.47 3.04-15.2 4.25-23.6 3.65 3.65 7.3 7.9 12.7 10.9l-7.9-13.3c3.65 1.82 7.9 4.86 11.5 6.07-9.11-9.11-17-21.2-20.6-38.9z"/>
          <path d="m82.4 81.7c-0.607-0.607-6.07 2.42-9.72-4.25 7.9 6.68 15.2-7.3 21.8 1.82 1.82 4.25-6.68 10.9-12.1 2.42z"/>
          <path d="m117 81.7c0.607-1.21 6.07 2.42 9.11-4.86-7.3 7.3-15.2-7.3-21.2 2.42-1.82 4.25 6.68 10.9 12.1 2.42z"/>
          <path d="m101 66.5c-1.02-0.607 3.58-4.25-3.07-8.51 5.63 7.9-10.2 10.9-1.54 17.6 3.58 2.42 12.2-2.42 4.6-9.11z"/>
        </g>
        <g transform="translate(0 50)">
          <path d="m100 81.1c-4.25 17.6-12.7 29.8-21.2 38.9 3.65-0.607 7.9-3.04 11.5-5.47-2.42 4.86-4.86 8.51-7.3 12.7 1.82-0.607 6.07-4.86 12.7-10.9 1.21 8.51 2.42 17.6 4.25 23.6 1.82-5.47 3.04-15.2 4.25-23.6 3.65 3.65 7.3 7.9 12.7 10.9l-7.9-13.3c3.65 1.82 7.9 4.86 11.5 6.07-9.11-9.11-17-21.2-20.6-38.9z"/>
          <path d="m82.4 81.7c-0.607-0.607-6.07 2.42-9.72-4.25 7.9 6.68 15.2-7.3 21.8 1.82 1.82 4.25-6.68 10.9-12.1 2.42z"/>
          <path d="m117 81.7c0.607-1.21 6.07 2.42 9.11-4.86-7.3 7.3-15.2-7.3-21.2 2.42-1.82 4.25 6.68 10.9 12.1 2.42z"/>
          <path d="m101 66.5c-1.02-0.607 3.58-4.25-3.07-8.51 5.63 7.9-10.2 10.9-1.54 17.6 3.58 2.42 12.2-2.42 4.6-9.11z"/>
        </g>
      </g>
    </pattern>
  </defs>
  <g clip-path="url(#shield_176515745)">
    <rect class="field" x="0" y="0" width="200" height="200" fill="url(#ermine-argent-sable)"/>
    <g class="ordinary" i="0" transform="translate(-100 -50) scale(2)" fill="#79b4e2" stroke="none" stroke-width="1">
      <rect x="0" y="75" width="200" height="50"/>
    </g>
    <g class="ordinary" i="1" fill="#26c061" stroke="none" stroke-width="1">
      <rect width="50%" height="50%"/>
    </g>
    <g class="ordinary" i="2" fill="#fafafa" stroke="none" stroke-width="1">
      <path d="M 80 0 L 80 80 L 0 80 L 0 95 L 80 95 L 80 105 L 0 105 L 0 120 L 80 120 L 80 200 L 95 200 L 95 120 L 105 120 L 105 200 L 120 200 L 120 120 L 200 120 L 200 105 L 120 105 L 120 95 L 200 95 L 200 80 L 120 80 L 120 0 L 105 0 L 105 80 L 95 80 L 95 0 L 80 0 z M 95 95 L 105 95 L 105 105 L 95 105 L 95 95 z"/>
    </g>
    <g class="ordinary" i="3" fill="#333333" stroke="none" stroke-width="1">
      <polygon points="85,0 85,85 0,85 0,115 85,115 85,200 115,200 115,115 200,115 200,85 115,85 115,0"/>
    </g>
    <g class="charge" i="0" charge="hand" fill="#fafafa" transform="translate(-10 -10)" stroke="#000">
      <use xlink:href="#hand" transform="translate(112.5 12.5) scale(-0.5 0.5)"/>
    </g>
    <g class="charge" i="1" charge="snake" fill="#ffe066" transform="translate(-3 7)" stroke="#000">
      <use xlink:href="#snake" transform="translate(117.75 87.5) scale(-0.5 0.5)"/>
    </g>
    <g class="charge" i="2" charge="snake" fill="#ffe066" transform="translate(3 7)" stroke="#000">
      <use xlink:href="#snake" transform="translate(82.25 87.5) scale(0.5)"/>
    </g>
  </g>
  <path class="grad" d="m25,25 h150 v50 a150,150,0,0,1,-75,125 a150,150,0,0,1,-75,-125 z" fill="url(#backlight)" stroke="#000000" stroke-width="3" style="pointer-events: none;"/>
</svg>